<?xml version="1.0"?>
<svg xmlns="http://www.w3.org/2000/svg" height="512px" viewBox="-1 0 512 512.0002" width="512px" class=""><g><path d="m491.941406 2.628906-113.449218 32.421875c-129.347657-36.972656-121.375-35.808593-126.03125-34.644531l-54.375 15.539062c-4.054688 1.160157-6.394532 5.386719-5.246094 9.449219 1.164062 4.054688 5.398437 6.40625 9.453125 5.234375l44.945312-12.839844v110.023438c-39.316406-5.984375-79.28125 6.480469-108.34375 34.644531v-113.703125l34.019531-9.722656c4.0625-1.160156 6.40625-5.386719 5.242188-9.441406-1.160156-4.0625-5.386719-6.402344-9.4375-5.242188l-37.460938 10.703125-113.449218-32.421875c-8.972656-2.5585935-17.808594 4.179688-17.808594 13.429688v479.945312c0 8.023438 6.585938 13.980469 13.929688 13.980469 2.863281 0-5.1875 2.0625 117.328124-33.144531 128.296876 36.863281 122.617188 35.847656 126.03125 34.824218l121.203126-34.824218c122.503906 35.203125 114.460937 33.144531 117.328124 33.144531 7.34375 0 13.929688-5.957031 13.929688-13.980469v-479.945312c0-9.304688-8.90625-15.9882815-17.808594-13.429688zm-121.085937 46.125v102.417969l-10.730469-5.546875c-7.535156-3.902344-12.382812-11.589844-12.648438-20.070312l-.609374-19.582032c-.613282-19.429687-15.664063-35.476562-35.007813-37.308594-7.332031-.703124-13.992187-4.878906-17.8125-11.171874l-22.523437-37.125zm-247.238281 414.398438-108.34375 31.121094v-281.921876l22.894531 23.925782c4.378906 4.480468 7.203125 10.375 7.941406 16.601562l7.5 62.988282c.972656 8.171874 4.210937 15.878906 9.367187 22.292968 41.570313 51.707032 31.453126 36.078125 47.214844 70.75 3.101563 6.824219 7.777344 12.511719 13.425782 16.792969zm0-61.609375c-16.085938-35.394531-6.648438-20.601563-48.734376-72.953125-3.363281-4.179688-5.472656-9.203125-6.105468-14.53125l-7.5-62.988282c-1.136719-9.550781-5.464844-18.597656-12.132813-25.414062l-33.871093-35.398438v-172.46875l108.34375 30.964844v131.480469c-31.21875 43.867187-31.867188 103.285156 0 148.058594zm123.621093 92.730469-108.34375-31.121094v-30c13.195313 3.496094 21.558594.230468 37.863281-3.847656 9.683594-2.421876 20.082032.460937 27.136719 7.519531 15.945313 15.941406 34.105469 12.742187 43.34375 11.914062zm0-60.871094c-10.367187.929687-21.832031 3.332031-32.542969-7.378906-10.828124-10.828126-26.785156-15.246094-41.644531-11.535157-16.066406 4.019531-23.339843 7.179688-34.15625 2.5625 0-8.421875 0-64.21875 0-70.980469 28.847657 27.960938 68.761719 40.6875 108.34375 34.632813zm-19.367187-66.507813c-92.804688 0-146.710938-107.34375-88.976563-181.609375 37.609375-48.417968 105.976563-57.378906 154.371094-22.746094 3.429687 2.453126 8.207031 1.660157 10.648437-1.773437 2.457032-3.429687 1.660157-8.195313-1.769531-10.652344-12.148437-8.683593-25.519531-15.070312-39.632812-19.019531v-96.125l18.472656 30.445312c6.3125 10.398438 17.308594 17.300782 29.417969 18.453126 11.71875 1.109374 20.824218 10.824218 21.191406 22.582031l.609375 19.582031c.4375 14.011719 8.453125 26.71875 20.90625 33.15625l17.746094 9.183594v182.476562l-32.390625-32.390625c27.359375-46.925781 21.636718-105.59375-12.554688-146.347656-2.707031-3.226563-7.523437-3.65625-10.753906-.945313-3.238281 2.707032-3.65625 7.523438-.945312 10.761719 60.929687 72.640625 9.464843 184.96875-86.339844 184.96875zm34.640625 127.378907v-46.910157c39.488281-3.542969 32.910156-5.558593 65.042969 28.222657zm108.34375-31.121094-26.738281 7.679687h-.003907l-25.828125-27.152343c-9.273437-9.75-22.277344-14.65625-35.691406-13.453126l-20.082031 1.804688v-54.628906c4.265625-1.199219 8.441406-2.613282 12.515625-4.234375l63.488281 63.488281c8.753906 8.757812 20.503906 12.878906 32.339844 12.097656zm-21.546875-37.296875-59.628906-59.632813c15.691406-8.695312 29.378906-20.597656 40.140624-34.8125l56.308594 56.308594c5.761719 5.761719 8.382813 12.175781 8.382813 19.398438 0 23.675781-28.664063 35.273437-45.203125 18.738281zm145.167968 68.417969-108.347656-31.121094v-18.378906c26.191406-12.492188 31.554688-47.097657 11.457032-67.195313l-11.457032-11.457031v-189.582032c4.59375 3.25 7.894532 8.074219 9.238282 13.625 22.773437 94.742188 21.179687 91.433594 26.097656 98.976563 26.375 40.441406 26.496094 39.484375 27.492187 45.933594 6.199219 39.488281 5.78125 45.289062 13.800781 55.34375 32.722657 41.152343 30.699219 38.765625 31.71875 39.589843zm0-88.511719c-21.113281-26.535157-23.335937-27.910157-24.582031-35.800781-6.222656-39.660157-5.796875-43.390626-11.660156-52.390626-26.285156-40.304687-25.863281-38.828124-27.136719-44.089843l-20.882812-86.890625c-2.628906-10.925782-9.859375-20.164063-19.847656-25.324219l-4.238282-2.191406v-110.320313l108.347656-30.964844zm0 0" data-original="#000000" class="active-path" data-old_color="#F7F1F1" fill="#F9F3F3"/><path d="m282.183594 186.183594c-36.339844-29.023438-90.035156-24.566406-120.796875 11.832031-2.71875 3.214844-2.320313 8.042969.90625 10.761719 3.21875 2.71875 8.035156 2.320312 10.761719-.90625 43.230468-51.160156 126.632812-20.023438 126.632812 46.445312 0 39.359375-31.871094 71.757813-71.867188 71.757813-48.726562 0-83.453124-47.734375-68.183593-94.261719 1.3125-4.003906-.867188-8.320312-4.867188-9.632812-4.011719-1.324219-8.320312.863281-9.644531 4.867187-10.996094 33.445313-1.007812 71.800781 28.441406 95.289063 56.96875 45.453124 141.398438 4.722656 141.398438-68.019532 0-26.679687-11.945313-51.515625-32.78125-68.132812zm0 0" data-original="#000000" class="active-path" data-old_color="#F7F1F1" fill="#F9F3F3"/></g> </svg>
