<?xml version="1.0"?>
<svg xmlns="http://www.w3.org/2000/svg" xmlns:xlink="http://www.w3.org/1999/xlink" version="1.1" id="Layer_1" x="0px" y="0px" viewBox="0 0 512.815 512.815" style="enable-background:new 0 0 512.815 512.815;" xml:space="preserve" width="512px" height="512px" class=""><g><g>
	<path d="M512,0.492H0v270h512V0.492z M482,60.492c-16.542,0-30-13.458-30-30h30V60.492z M30,30.492h30c0,16.542-13.458,30-30,30   V30.492z M30,210.492c16.542,0,30,13.458,30,30H30V210.492z M30,180.492v-90c33.084,0,60-26.916,60-60h151v36.919   c-17.542,6.147-30.161,22.86-30.161,42.474c0,24.813,20.187,45,45,45c8.271,0,15,6.729,15,15s-6.729,15-15,15   c-8.271,0-15-6.729-15-15h-30c0,19.614,12.619,36.327,30.161,42.474v28.132H90C90,207.408,63.084,180.492,30,180.492z M271,240.492   v-28.241c17.376-6.237,29.84-22.87,29.84-42.365c0-24.813-20.188-45-45-45c-8.271,0-15-6.729-15-15s6.729-15,15-15   c8.271,0,15,6.729,15,15h30c0-19.495-12.464-36.128-29.84-42.365V30.492h151c0,33.084,26.916,60,60,60v90   c-33.084,0-60,26.916-60,60H271z M482,240.492h-30c0-16.542,13.458-30,30-30V240.492z" data-original="#000000" class="active-path" data-old_color="#FBF6F6" fill="#FCFBFB"/>
	<path d="M504.228,337.804c-23.498-33.073-70.768-41.423-104.493-19.21l-47.476,31.274c-8.2-11.136-21.4-18.376-36.259-18.376   h-48.68c-6.907,0-9.959-3.783-16.954-9.939c-39.546-34.8-99.187-34.8-138.732,0l-11.294,9.939H0v150h104.759l184.983,30.831   l223.073-162.432L504.228,337.804z M282.258,480.662l-175.017-29.169H30v-90h81.66l19.793-17.417   c28.246-24.858,70.847-24.857,99.094,0c7.601,6.689,17.656,17.417,36.773,17.417H316c8.271,0,15,6.729,15,15s-6.729,15-15,15H196   v30h120c23.59,0,42.997-18.243,44.854-41.362l55.383-36.483c16.104-10.607,37.59-9.575,52.828,0.99L282.258,480.662z" data-original="#000000" class="active-path" data-old_color="#FBF6F6" fill="#FCFBFB"/>
	<path d="M136,90.492c-24.813,0-45,20.187-45,45s20.187,45,45,45s45-20.187,45-45S160.813,90.492,136,90.492z M136,150.492   c-8.271,0-15-6.729-15-15s6.729-15,15-15s15,6.729,15,15S144.271,150.492,136,150.492z" data-original="#000000" class="active-path" data-old_color="#FBF6F6" fill="#FCFBFB"/>
	<path d="M376,90.492c-24.813,0-45,20.187-45,45s20.187,45,45,45s45-20.187,45-45S400.813,90.492,376,90.492z M376,150.492   c-8.271,0-15-6.729-15-15s6.729-15,15-15s15,6.729,15,15S384.271,150.492,376,150.492z" data-original="#000000" class="active-path" data-old_color="#FBF6F6" fill="#FCFBFB"/>
</g></g> </svg>
